<svg width="420" height="190" viewBox="0 0 420 190" fill="none" xmlns="http://www.w3.org/2000/svg">
  <rect width="420" height="190" fill="white"/>
  <path d="M73 93.5C73 56.22 100.31 29.5 134 29.5C167.69 29.5 195 56.22 195 93.5H168.48C168.48 70.78 153.65 54.46 134 54.46C114.35 54.46 99.52 70.78 99.52 93.5H73Z" fill="#2F3396"/>
  <path d="M69.5 93.5H105.8V105H63L69.5 93.5Z" fill="#2F3396"/>
  <path d="M162.2 93.5H198.5L205 105H162.2V93.5Z" fill="#2F3396"/>
  <path d="M134 39L169 58.4L134 78L99 58.4L134 39Z" fill="#C3A73A"/>
  <path d="M99 58.4L134 78V119.5L99 100V58.4Z" fill="#B29322"/>
  <path d="M169 58.4L134 78V119.5L169 100V58.4Z" fill="#D0B95B"/>
  <path d="M120.1 51.9L134 44.2L147.9 51.9L134 59.8L120.1 51.9Z" fill="#F5E7A4"/>
  <path d="M111 74.2H125.2C127.96 74.2 130.2 76.44 130.2 79.2V83C130.2 85.76 127.96 88 125.2 88H111C108.24 88 106 85.76 106 83V79.2C106 76.44 108.24 74.2 111 74.2Z" fill="#FFF7D1"/>
  <path d="M137.8 79.2C137.8 76.44 140.04 74.2 142.8 74.2H157C159.76 74.2 162 76.44 162 79.2V83C162 85.76 159.76 88 157 88H142.8C140.04 88 137.8 85.76 137.8 83V79.2Z" fill="#FFF7D1"/>
  <path d="M134 31L155.3 42.9L147.8 47.1L134 39.4L120.2 47.1L112.7 42.9L134 31Z" fill="#C3A73A"/>
  <text x="210" y="104" fill="#111827" font-family="Segoe UI, Arial, sans-serif" font-size="32" font-weight="700">BANNARI AMMAN</text>
  <text x="210" y="134" fill="#111827" font-family="Segoe UI, Arial, sans-serif" font-size="23" font-weight="700">INSTITUTE OF TECHNOLOGY</text>
  <line x1="210" y1="142" x2="400" y2="142" stroke="#111827" stroke-width="2.5"/>
  <text x="254" y="171" fill="#374151" font-family="Georgia, 'Times New Roman', serif" font-size="24" font-style="italic">Stay Ahead</text>
</svg>
